<?xml version="1.0" encoding="UTF-8" standalone="no"?>
<!DOCTYPE svg PUBLIC "-//W3C//DTD SVG 1.1//EN" "http://www.w3.org/Graphics/SVG/1.1/DTD/svg11.dtd">
<!-- Généré par Microsoft Visio, SVG Export menuExplore_diag2.svg Page-1 -->
<svg xmlns="http://www.w3.org/2000/svg" xmlns:xlink="http://www.w3.org/1999/xlink" xmlns:ev="http://www.w3.org/2001/xml-events"
		width="11.6929in" height="8.26772in" viewBox="0 0 841.89 595.276" xml:space="preserve" color-interpolation-filters="sRGB"
		class="st11">
	<style type="text/css">
	<![CDATA[
		.st1 {visibility:visible}
		.st2 {fill:#5b9bd5;fill-opacity:0.25;filter:url(#filter_2);stroke:#5b9bd5;stroke-opacity:0.25}
		.st3 {fill:#ffffff;fill-opacity:0;stroke:#40709c;stroke-width:0.75}
		.st4 {fill:#41719c;font-family:Calibri;font-size:1.5em;font-stretch:semi-expanded}
		.st5 {fill:#41719c;font-family:Calibri;font-size:1.00001em;font-stretch:semi-expanded}
		.st6 {fill:#ffffff;stroke:#759fcc;stroke-width:0.75}
		.st7 {fill:#759fcc;font-family:Calibri;font-size:1.16666em}
		.st8 {font-size:1em}
		.st9 {marker-end:url(#mrkr4-133);stroke:#41719c;stroke-linecap:round;stroke-linejoin:round;stroke-width:2}
		.st10 {fill:#41719c;fill-opacity:1;stroke:#41719c;stroke-opacity:1;stroke-width:0.52631578947368}
		.st11 {fill:none;fill-rule:evenodd;font-size:12px;overflow:visible;stroke-linecap:square;stroke-miterlimit:3}
		svg { pointer-events: none; }
	]]>
	</style>

	<defs id="Patterns_And_Gradients">
		<linearGradient id="grad0-20" x1="0" y1="0" x2="1" y2="0" gradientTransform="rotate(90 0.5 0.5)">
			<stop offset="0.01" stop-color="#eeeeee" stop-opacity="1"/>
			<stop offset="0.5" stop-color="#d7d7d7" stop-opacity="1"/>
			<stop offset="1" stop-color="#eeeeee" stop-opacity="1"/>
		</linearGradient>
	</defs>
	<defs id="Markers">
		<g id="lend4">
			<path d="M 2 1 L 0 0 L 2 -1 L 2 1 " style="stroke:none"/>
		</g>
		<marker id="mrkr4-133" class="st10" refX="-3.8" orient="auto" markerUnits="strokeWidth" overflow="visible">
			<use xlink:href="#lend4" transform="scale(-1.9,-1.9) "/>
		</marker>
	</defs>
	<defs id="Filters">
		<filter id="filter_2">
			<feGaussianBlur stdDeviation="2"/>
		</filter>
	</defs>
	<g>
		<title>Page 1</title>
		<g id="group8-1" transform="translate(17.0079,-208.292)">
			<title>Sans couleur</title>
			<g id="group9-2">
				<title>Feuille.9</title>
				<g id="shape10-3" transform="translate(2.83465,2.83465)">
					<title>Feuille.10</title>
					<g id="shadow10-4" transform="matrix(1,0,0,1,0.3456,1.9728)" class="st1"/>
				</g>
				<g id="shape9-8">
					<g id="shadow9-9" transform="matrix(1,0,0,1,0.3456,1.9728)" class="st1">
						<path d="M0 595.28 L402.52 595.28 L805.04 595.28 L805.04 222.46 L402.52 222.46 L0 222.46 L0 595.28 Z"
								class="st2"/>
					</g>
					<path d="M0 595.28 L402.52 595.28 L805.04 595.28 L805.04 222.46 L402.52 222.46 L0 222.46 L0 595.28 Z"
							class="st3"/>
				</g>
			</g>
			<g id="group11-13" transform="translate(0,-343.047)">
				<title>Feuille.11</title>
				<desc>MenuExplore</desc>
				<g id="shape12-14">
					<title>Feuille.12</title>
					<g id="shadow12-15" transform="matrix(1,0,0,1,0.345598,1.97279)" class="st1"/>
				</g>
				<g id="shape11-21">
					<text x="6" y="585.79" class="st4">MenuExplore</text>				</g>
			</g>
		</g>
		<g id="group15-24" transform="translate(17.0079,-57.311)">
			<title>Sans couleur.15</title>
			<g id="group16-25">
				<title>Feuille.16</title>
				<g id="shape17-26" transform="translate(2.83465,2.83465)">
					<title>Feuille.17</title>
					<g id="shadow17-27" transform="matrix(1,0,0,1,0.3456,1.9728)" class="st1"/>
				</g>
				<g id="shape16-31">
					<g id="shadow16-32" transform="matrix(1,0,0,1,0.3456,1.9728)" class="st1">
						<path d="M0 595.28 L402.52 595.28 L805.04 595.28 L805.04 458.02 L402.52 458.02 L0 458.02 L0 595.28 Z"
								class="st2"/>
					</g>
					<path d="M0 595.28 L402.52 595.28 L805.04 595.28 L805.04 458.02 L402.52 458.02 L0 458.02 L0 595.28 Z"
							class="st3"/>
				</g>
			</g>
			<g id="group18-36" transform="translate(0,-107.495)">
				<title>Feuille.18</title>
				<desc>Shared</desc>
				<g id="shape19-37">
					<title>Feuille.19</title>
					<g id="shadow19-38" transform="matrix(1,0,0,1,0.345598,1.97279)" class="st1"/>
				</g>
				<g id="shape18-43">
					<text x="6" y="585.79" class="st4">Shared</text>				</g>
			</g>
		</g>
		<g id="group42-46" transform="translate(30.5733,-218.03)">
			<title>Sans couleur.42</title>
			<g id="group43-47">
				<title>Feuille.43</title>
				<g id="shape44-48" transform="translate(2.83465,2.83465)">
					<title>Feuille.44</title>
					<g id="shadow44-49" transform="matrix(1,0,0,1,0.3456,1.9728)" class="st1"/>
				</g>
				<g id="shape43-53">
					<g id="shadow43-54" transform="matrix(1,0,0,1,0.3456,1.9728)" class="st1">
						<path d="M0 595.28 L188.38 595.28 L376.76 595.28 L376.76 361.43 L188.38 361.43 L0 361.43 L0 595.28 Z"
								class="st2"/>
					</g>
					<path d="M0 595.28 L188.38 595.28 L376.76 595.28 L376.76 361.43 L188.38 361.43 L0 361.43 L0 595.28 Z"
							class="st3"/>
				</g>
			</g>
			<g id="group45-58" transform="translate(0,-208.337)">
				<title>Feuille.45</title>
				<desc>ExploreModel</desc>
				<g id="shape46-59">
					<title>Feuille.46</title>
					<g id="shadow46-60" transform="matrix(1,0,0,1,0.345598,1.97279)" class="st1"/>
				</g>
				<g id="shape45-65">
					<text x="6" y="586.12" class="st5">ExploreModel</text>				</g>
			</g>
		</g>
		<g id="group57-68" transform="translate(432.41,-218.03)">
			<title>Sans couleur.57</title>
			<g id="group58-69">
				<title>Feuille.58</title>
				<g id="shape59-70" transform="translate(2.83465,2.83465)">
					<title>Feuille.59</title>
					<g id="shadow59-71" transform="matrix(1,0,0,1,0.3456,1.9728)" class="st1"/>
				</g>
				<g id="shape58-75">
					<g id="shadow58-76" transform="matrix(1,0,0,1,0.3456,1.9728)" class="st1">
						<path d="M0 595.28 L188.38 595.28 L376.76 595.28 L376.76 361.43 L188.38 361.43 L0 361.43 L0 595.28 Z"
								class="st2"/>
					</g>
					<path d="M0 595.28 L188.38 595.28 L376.76 595.28 L376.76 361.43 L188.38 361.43 L0 361.43 L0 595.28 Z"
							class="st3"/>
				</g>
			</g>
			<g id="group60-80" transform="translate(0,-208.337)">
				<title>Feuille.60</title>
				<desc>UQModel</desc>
				<g id="shape61-81">
					<title>Feuille.61</title>
					<g id="shadow61-82" transform="matrix(1,0,0,1,0.345598,1.97279)" class="st1"/>
				</g>
				<g id="shape60-87">
					<text x="6" y="586.12" class="st5">UQModel</text>				</g>
			</g>
		</g>
		<g id="shape1-90" transform="translate(166.842,-334.763)">
			<title>Rectangle</title>
			<desc>ExploreModel</desc>
			<rect x="0" y="517.112" width="104.218" height="78.1633" class="st6"/>
			<text x="12.32" y="560.39" class="st7">ExploreModel</text>		</g>
		<g id="shape2-93" transform="translate(367.419,-459.116)">
			<title>Rectangle.2</title>
			<desc>MenuExplore</desc>
			<rect x="0" y="517.112" width="104.218" height="78.1633" class="st6"/>
			<text x="13.94" y="560.39" class="st7">MenuExplore</text>		</g>
		<g id="shape3-96" transform="translate(568.679,-334.763)">
			<title>Rectangle.3</title>
			<desc>UQModel</desc>
			<rect x="0" y="517.112" width="104.218" height="78.1633" class="st6"/>
			<text x="24.46" y="560.39" class="st7">UQModel</text>		</g>
		<g id="shape13-99" transform="translate(103.797,-67.0494)">
			<title>Rectangle.13</title>
			<desc>XinfosChange</desc>
			<rect x="0" y="517.112" width="104.218" height="78.1633" class="st6"/>
			<text x="13.41" y="560.39" class="st7">XinfosChange</text>		</g>
		<g id="shape21-102" transform="translate(40.3116,-227.769)">
			<title>Rectangle.21</title>
			<desc>ModelManual-Exploration</desc>
			<rect x="0" y="517.112" width="104.218" height="78.1633" class="st6"/>
			<text x="9.87" y="551.99" class="st7">ModelManual-<tspan x="19.57" dy="1.2em" class="st8">Exploration</tspan></text>		</g>
		<g id="shape22-106" transform="translate(166.842,-227.769)">
			<title>Rectangle.22</title>
			<desc>Model-Qualitative-Exploration</desc>
			<rect x="0" y="517.112" width="104.218" height="78.1633" class="st6"/>
			<text x="31.52" y="543.59" class="st7">Model-<tspan x="18.72" dy="1.2em" class="st8">Qualitative</tspan>-<tspan
						x="19.57" dy="1.2em" class="st8">Exploration</tspan></text>		</g>
		<g id="shape23-111" transform="translate(293.373,-227.769)">
			<title>Rectangle.23</title>
			<desc>Model-Quantitative-Exploration</desc>
			<rect x="0" y="517.112" width="104.218" height="78.1633" class="st6"/>
			<text x="31.52" y="543.59" class="st7">Model-<tspan x="14.3" dy="1.2em" class="st8">Quantitative</tspan>-<tspan
						x="19.57" dy="1.2em" class="st8">Exploration</tspan></text>		</g>
		<g id="shape24-116" transform="translate(568.679,-227.769)">
			<title>Rectangle.24</title>
			<desc>Uncertainty-Propagation</desc>
			<rect x="0" y="517.112" width="104.218" height="78.1633" class="st6"/>
			<text x="16.42" y="551.99" class="st7">Uncertainty-<tspan x="17.36" dy="1.2em" class="st8">Propagation</tspan></text>		</g>
		<g id="shape25-120" transform="translate(442.148,-334.763)">
			<title>Rectangle.25</title>
			<desc>Uncertainty-Definition</desc>
			<rect x="0" y="517.112" width="104.218" height="78.1633" class="st6"/>
			<text x="16.42" y="551.99" class="st7">Uncertainty-<tspan x="23.97" dy="1.2em" class="st8">Definition</tspan></text>		</g>
		<g id="shape26-124" transform="translate(695.209,-227.769)">
			<title>Rectangle.26</title>
			<desc>Sensitivity-Analysis</desc>
			<rect x="0" y="517.112" width="104.218" height="78.1633" class="st6"/>
			<text x="21.01" y="551.99" class="st7">Sensitivity-<tspan x="29.17" dy="1.2em" class="st8">Analysis</tspan></text>		</g>
		<g id="shape28-128" transform="translate(218.951,-334.763)">
			<title>Lien dynamique.28</title>
			<path d="M0 595.28 L0 605.91 L-126.53 605.91 L-126.53 616.51" class="st9"/>
		</g>
		<g id="shape29-134" transform="translate(226.038,-334.763)">
			<title>Lien dynamique.29</title>
			<path d="M-7.09 595.28 L-7.09 616.51" class="st9"/>
		</g>
		<g id="shape30-139" transform="translate(218.951,-334.763)">
			<title>Lien dynamique.30</title>
			<path d="M0 595.28 L0 605.91 L126.53 605.91 L126.53 616.51" class="st9"/>
		</g>
		<g id="shape31-144" transform="translate(620.787,-334.763)">
			<title>Lien dynamique.31</title>
			<path d="M0 595.28 L0 605.91 L126.53 605.91 L126.53 616.51" class="st9"/>
		</g>
		<g id="shape32-149" transform="translate(627.874,-334.763)">
			<title>Lien dynamique.32</title>
			<path d="M-7.09 595.28 L-7.09 616.51" class="st9"/>
		</g>
		<g id="shape34-154" transform="translate(367.419,-69.8166)">
			<title>Rectangle.34</title>
			<desc>DynamicSelect</desc>
			<rect x="0" y="517.112" width="104.218" height="78.1633" class="st6"/>
			<text x="10.35" y="560.39" class="st7">DynamicSelect</text>		</g>
		<g id="shape35-157" transform="translate(631.041,-69.8166)">
			<title>Rectangle.35</title>
			<desc>DynamicSelect-Picker</desc>
			<rect x="0" y="517.112" width="104.218" height="78.1633" class="st6"/>
			<text x="8.21" y="551.99" class="st7">DynamicSelect-<tspan x="34.82" dy="1.2em" class="st8">Picker</tspan></text>		</g>
		<g id="shape37-161" transform="translate(367.419,-498.198)">
			<title>Lien dynamique</title>
			<path d="M0 595.28 L-148.47 595.28 L-148.47 672.95" class="st9"/>
		</g>
		<g id="shape38-166" transform="translate(471.636,-498.198)">
			<title>Lien dynamique.38</title>
			<path d="M0 595.28 L149.15 595.28 L149.15 672.95" class="st9"/>
		</g>
		<g id="shape39-171" transform="translate(568.679,-366.758)">
			<title>Lien dynamique.39</title>
			<path d="M0 588.19 L-14.71 588.19" class="st9"/>
		</g>
		<g id="shape40-176" transform="translate(442.148,-227.769)">
			<title>Rectangle.40</title>
			<desc>UQParams-Change</desc>
			<rect x="0" y="517.112" width="104.218" height="78.1633" class="st6"/>
			<text x="19.67" y="551.99" class="st7">UQParams-<tspan x="30.89" dy="1.2em" class="st8">Change</tspan></text>		</g>
		<g id="shape41-180" transform="translate(487.17,-334.763)">
			<title>Lien dynamique.41</title>
			<path d="M7.09 595.28 L7.09 616.51" class="st9"/>
		</g>
		<g id="shape67-185" transform="translate(293.373,-259.764)">
			<title>Lien dynamique.67</title>
			<path d="M0 588.19 L-14.71 588.19" class="st9"/>
		</g>
		<g id="shape69-190" transform="translate(620.787,-227.769)">
			<title>Lien dynamique.69</title>
			<path d="M0 595.28 L0 643.36 L62.36 643.36 L62.36 667.46" class="st9"/>
		</g>
		<g id="shape73-195" transform="translate(397.591,-266.85)">
			<title>Lien dynamique.73</title>
			<path d="M0 595.28 L21.94 595.28 L21.94 706.55" class="st9"/>
		</g>
		<g id="shape74-200" transform="translate(345.482,-227.769)">
			<title>Lien dynamique.74</title>
			<path d="M0 595.28 L0 643.36 L71.68 643.36 A2.3622 2.3622 0 0 1 76.41 643.36 L337.67 643.36 L337.67 667.46" class="st9"/>
		</g>
		<g id="shape75-205" transform="translate(218.951,-227.769)">
			<title>Lien dynamique.75</title>
			<path d="M0 595.28 L0 643.36 L198.21 643.36 A2.3622 2.3622 0 1 1 202.94 643.36 L464.2 643.36 L464.2 667.46" class="st9"/>
		</g>
		<g id="shape77-210" transform="translate(747.318,-227.769)">
			<title>Lien dynamique.77</title>
			<path d="M0 595.28 L0 643.36 L-64.17 643.36 L-64.17 667.46" class="st9"/>
		</g>
		<g id="shape78-215" transform="translate(168.46,-266.85)">
			<title>Lien dynamique.78</title>
			<path d="M-1.62 595.28 L-12.55 595.28 L-12.55 709.31" class="st9"/>
		</g>
	</g>
</svg>
